# xmcd
#
# Track frame offsets:
#	150
#	23755
#	39025
#	56016
#	69958
#	84402
#	103691
#	118922
#	132028
#	149569
#	163186
#	190443
#	205373
#	219000
#
# Disc length: 3155 seconds
#
# Revision: 0
# Processed by: cddbd v1.5.2PL0 Copyright (c) Steve Scherf et al.
# Submitted via: audiograbber 1.83.01
#
DISCID=c40c510e
DTITLE=Not Fragile - Yesterday's Hero
DYEAR=2003
DGENRE=Hard Rock
TTITLE0=With All My Might
TTITLE1=Too Fast
TTITLE2=Immortal Legions
TTITLE3=Locomotive
TTITLE4=We'll Bring The House Down
TTITLE5=The Six Teens
TTITLE6=Blookd On The Land
TTITLE7=Made Of Metal
TTITLE8=Thanks For The Memory
TTITLE9=Hypnotized
TTITLE10=Cheltenham
TTITLE11=Turn It Down
TTITLE12=Hard To Be Alive
TTITLE13=Yeserday's Hero
EXTD=
EXTT0=
EXTT1=
EXTT2=
EXTT3=
EXTT4=
EXTT5=
EXTT6=
EXTT7=
EXTT8=
EXTT9=
EXTT10=
EXTT11=
EXTT12=
EXTT13=
PLAYORDER=
